<svg viewBox="0 0 101 101" xmlns="http://www.w3.org/2000/svg">
<path d="M69.294 11.442C62.506 5.84802 53.57 3.62202 44.782 5.33302C32.951 7.63602 23.449 17.623 21.675 29.62C20.228 39.41 23.706 49.187 30.979 55.775C34.256 58.743 36.233 63.018 36.547 67.814C36.553 67.901 36.57 67.985 36.589 68.068V83.107C36.589 83.935 37.26 84.607 38.089 84.607H39.584C40.193 88.966 43.397 92.304 47.256 92.304H54.066C57.925 92.304 61.128 88.966 61.737 84.607H63.232C64.06 84.607 64.732 83.935 64.732 83.107V67.828C64.732 67.825 64.733 67.822 64.733 67.818C64.733 63.356 66.759 59.047 70.439 55.685C76.501 50.147 79.977 42.27 79.977 34.075C79.978 25.287 76.084 17.037 69.294 11.442ZM45.357 39.91H43.052C41.781 39.91 40.747 38.876 40.747 37.605C40.747 36.334 41.781 35.3 43.052 35.3C44.323 35.3 45.357 36.334 45.357 37.605V39.91ZM55.966 37.605C55.966 36.334 57 35.3 58.272 35.3C59.543 35.3 60.577 36.334 60.577 37.605C60.577 38.876 59.543 39.91 58.272 39.91H55.969L55.966 37.605ZM55.063 69.211H61.733V81.607H60.36C60.357 81.607 60.354 81.606 60.35 81.606C60.346 81.606 60.344 81.607 60.34 81.607H40.982C40.979 81.607 40.976 81.606 40.972 81.606C40.968 81.606 40.966 81.607 40.962 81.607H39.59V69.211H53.956H55.063ZM48.357 66.211V42.91H52.974L53.008 66.211H48.357ZM54.066 89.304H47.256C45.018 89.304 43.139 87.3 42.619 84.607H58.702C58.183 87.3 56.304 89.304 54.066 89.304ZM68.416 53.471C64.544 57.008 62.252 61.484 61.823 66.211H56.007L55.974 42.91H58.272C61.197 42.91 63.577 40.53 63.577 37.605C63.577 34.68 61.197 32.3 58.272 32.3C55.346 32.3 52.966 34.68 52.966 37.607L52.969 39.91H48.357V37.605C48.357 34.68 45.977 32.3 43.052 32.3C40.127 32.3 37.747 34.68 37.747 37.605C37.747 40.53 40.127 42.91 43.052 42.91H45.357V66.211H39.385C38.749 61.206 36.521 56.746 32.992 53.551C26.464 47.637 23.342 38.855 24.642 30.058C26.233 19.298 34.75 10.342 45.354 8.27702C53.262 6.73902 61.292 8.73502 67.384 13.757C73.48 18.78 76.976 26.186 76.976 34.076C76.978 41.43 73.857 48.5 68.416 53.471Z"/>
</svg>
