<svg viewBox="0 0 48 48" xmlns="http://www.w3.org/2000/svg">
<path d="M43 0H5C3.67392 0 2.40215 0.526784 1.46447 1.46447C0.526784 2.40215 0 3.67392 0 5L0 43C0 43.6566 0.129329 44.3068 0.380602 44.9134C0.631876 45.52 1.00017 46.0712 1.46447 46.5355C1.92876 46.9998 2.47995 47.3681 3.08658 47.6194C3.69321 47.8707 4.34339 48 5 48H43C43.6566 48 44.3068 47.8707 44.9134 47.6194C45.52 47.3681 46.0712 46.9998 46.5355 46.5355C46.9998 46.0712 47.3681 45.52 47.6194 44.9134C47.8707 44.3068 48 43.6566 48 43V5C48 4.34339 47.8707 3.69321 47.6194 3.08658C47.3681 2.47995 46.9998 1.92876 46.5355 1.46447C46.0712 1.00017 45.52 0.631876 44.9134 0.380602C44.3068 0.129329 43.6566 0 43 0V0ZM5 46C4.20435 46 3.44129 45.6839 2.87868 45.1213C2.31607 44.5587 2 43.7956 2 43V40.46L18 24.46L39.59 46H5ZM46 43C46 43.7956 45.6839 44.5587 45.1213 45.1213C44.5587 45.6839 43.7956 46 43 46H42.41L28.55 32.14L36.14 24.55L46 34.41V43ZM46 31.59L36.84 22.43C36.6526 22.2437 36.3992 22.1392 36.135 22.1392C35.8708 22.1392 35.6174 22.2437 35.43 22.43L27.14 30.72L18.73 22.31C18.5426 22.1237 18.2892 22.0192 18.025 22.0192C17.7608 22.0192 17.5074 22.1237 17.32 22.31L2 37.63V5C2 4.20435 2.31607 3.44129 2.87868 2.87868C3.44129 2.31607 4.20435 2 5 2H43C43.7956 2 44.5587 2.31607 45.1213 2.87868C45.6839 3.44129 46 4.20435 46 5V31.59Z"/>
<path d="M25 7C23.8133 7 22.6533 7.35189 21.6666 8.01118C20.6799 8.67047 19.9109 9.60754 19.4567 10.7039C19.0026 11.8003 18.8838 13.0067 19.1153 14.1705C19.3468 15.3344 19.9182 16.4035 20.7574 17.2426C21.5965 18.0818 22.6656 18.6532 23.8295 18.8847C24.9933 19.1162 26.1997 18.9974 27.2961 18.5433C28.3925 18.0892 29.3295 17.3201 29.9888 16.3334C30.6481 15.3467 31 14.1867 31 13C31 11.4087 30.3679 9.88258 29.2426 8.75736C28.1174 7.63214 26.5913 7 25 7V7ZM25 17C24.2089 17 23.4355 16.7654 22.7777 16.3259C22.1199 15.8864 21.6072 15.2616 21.3045 14.5307C21.0017 13.7998 20.9225 12.9956 21.0769 12.2196C21.2312 11.4437 21.6122 10.731 22.1716 10.1716C22.731 9.61216 23.4437 9.2312 24.2196 9.07686C24.9956 8.92252 25.7998 9.00173 26.5307 9.30448C27.2616 9.60723 27.8864 10.1199 28.3259 10.7777C28.7654 11.4355 29 12.2089 29 13C29 14.0609 28.5786 15.0783 27.8284 15.8284C27.0783 16.5786 26.0609 17 25 17Z"/>
</svg>
