<svg viewBox="0 0 682 682" xmlns="http://www.w3.org/2000/svg">
<path d="M98.517 34.6316C51.6331 34.6316 20.9795 65.4179 20.9795 105.882C20.9795 145.453 50.7199 177.117 96.7179 177.117H97.6077C145.409 177.117 175.157 145.453 175.157 105.882C174.263 65.4179 145.409 34.6316 98.517 34.6316V34.6316Z"/>
<path d="M29.0809 233.418H166.142V645.772H29.0809V233.418Z"/>
<path d="M502.563 223.74C428.624 223.74 379.043 293.219 379.043 293.219V233.418H241.978V645.772H379.036V415.497C379.036 403.17 379.929 390.861 383.551 382.046C393.459 357.429 416.007 331.927 453.873 331.927C503.469 331.927 523.305 369.741 523.305 425.176V645.772H660.354V409.336C660.354 282.678 592.733 223.74 502.563 223.74V223.74Z"/>
</svg>
