<svg viewBox="0 0 48 48" xmlns="http://www.w3.org/2000/svg">
<path fill-rule="evenodd" clip-rule="evenodd" d="M43 41H5C2.791 41 1 39.209 1 37V15C1 12.791 2.791 11 5 11H6C6 9.896 6.896 9 8 9H10C11.104 9 12 9.896 12 11H14C14 11 15.125 10.875 16 10L18 8C18 8 18.781 7 20 7H28C29.312 7 30 8 30 8L32 10C32.875 10.875 34 11 34 11H43C45.209 11 47 12.791 47 15V37C47 39.209 45.209 41 43 41ZM45 15C45 13.896 44.104 13 43 13L33.779 12.987C33.474 12.954 31.89 12.718 30.586 11.414L28.456 9.284L28.352 9.133C28.351 9.132 28.196 9 28 9H20C19.847 9 19.625 9.178 19.576 9.231L19.501 9.327L17.414 11.413C16.109 12.718 14.525 12.953 14.221 12.986L10.07 12.992C10.046 12.994 10.023 13 10 13H8C7.986 13 7.974 12.996 7.96 12.996L5 13C3.896 13 3 13.896 3 15V37C3 38.104 3.896 39 5 39H43C44.104 39 45 38.104 45 37V15ZM24 37C17.925 37 13 32.075 13 26C13 19.925 17.925 15 24 15C30.075 15 35 19.925 35 26C35 32.075 30.075 37 24 37ZM24 17C19.029 17 15 21.029 15 26C15 30.971 19.029 35 24 35C28.971 35 33 30.971 33 26C33 21.029 28.971 17 24 17ZM24 31C21.238 31 19 28.762 19 26C19 23.238 21.238 21 24 21C26.762 21 29 23.238 29 26C29 28.762 26.762 31 24 31ZM24 23C22.344 23 21 24.344 21 26C21 27.657 22.344 29 24 29C25.657 29 27 27.657 27 26C27 24.344 25.657 23 24 23ZM10 19H6C5.447 19 5 18.553 5 18V16C5 15.448 5.447 15 6 15H10C10.553 15 11 15.448 11 16V18C11 18.553 10.553 19 10 19Z"/>
</svg>
