<svg viewBox="0 0 32 26" xmlns="http://www.w3.org/2000/svg">
<path d="M31.993 3.077C30.816 3.6 29.552 3.953 28.223 4.11C29.578 3.298 30.619 2.012 31.11 0.48C29.841 1.231 28.437 1.779 26.942 2.072C25.744 0.797 24.038 0 22.149 0C18.524 0 15.587 2.938 15.587 6.563C15.587 7.077 15.644 7.579 15.756 8.059C10.301 7.785 5.46498 5.172 2.22698 1.201C1.66298 2.171 1.33898 3.298 1.33898 4.501C1.33898 6.779 2.49798 8.787 4.25798 9.965C3.18298 9.93 2.17098 9.636 1.28598 9.144C1.28498 9.171 1.28498 9.2 1.28498 9.226C1.28498 12.407 3.54698 15.06 6.54998 15.663C5.99998 15.812 5.41998 15.893 4.82098 15.893C4.39698 15.893 3.98698 15.852 3.58698 15.776C4.42098 18.382 6.84598 20.28 9.71698 20.334C7.47198 22.094 4.64198 23.145 1.56698 23.145C1.03698 23.145 0.513977 23.114 0.000976562 23.053C2.90498 24.913 6.35498 26 10.062 26C22.134 26 28.737 15.999 28.737 7.325C28.737 7.041 28.729 6.757 28.717 6.475C30 5.55 31.112 4.395 31.993 3.077Z"/>
</svg>
